<?xml version="1.0" encoding="UTF-8" standalone="no"?>
<!-- Created with Inkscape (http://www.inkscape.org/) -->

<svg
   width="41.315563mm"
   height="32.036339mm"
   viewBox="0 0 41.315563 32.036339"
   version="1.1"
   id="svg5"
   inkscape:version="1.1.2 (0a00cf5339, 2022-02-04, custom)"
   sodipodi:docname="win96.svg"
   xmlns:inkscape="http://www.inkscape.org/namespaces/inkscape"
   xmlns:sodipodi="http://sodipodi.sourceforge.net/DTD/sodipodi-0.dtd"
   xmlns="http://www.w3.org/2000/svg"
   xmlns:svg="http://www.w3.org/2000/svg">
  <sodipodi:namedview
     id="namedview7"
     pagecolor="#ffffff"
     bordercolor="#666666"
     borderopacity="1.0"
     inkscape:pageshadow="2"
     inkscape:pageopacity="0.0"
     inkscape:pagecheckerboard="0"
     inkscape:document-units="mm"
     showgrid="false"
     fit-margin-top="0"
     fit-margin-left="0"
     fit-margin-right="0"
     fit-margin-bottom="0"
     inkscape:zoom="2.9148709"
     inkscape:cx="47.1719"
     inkscape:cy="133.11053"
     inkscape:window-width="1920"
     inkscape:window-height="1007"
     inkscape:window-x="-9"
     inkscape:window-y="-9"
     inkscape:window-maximized="1"
     inkscape:current-layer="layer1" />
  <defs
     id="defs2" />
  <g
     inkscape:label="Layer 1"
     inkscape:groupmode="layer"
     id="layer1"
     transform="translate(-67.008237,-34.356952)">
    <path
       style="fill:#fefefe;stroke-width:0.0504588"
       d="m 77.554134,64.854297 v -1.538995 h 1.463306 1.463306 v 1.538995 1.538994 H 79.01744 77.554134 Z m -2.497713,1.089205 C 74.390365,65.784449 73.782967,65.638499 73.706648,65.61917 l -0.138762,-0.03514 v -1.538033 c 0,-1.266291 0.01217,-1.538033 0.06891,-1.538033 0.0379,0 0.6453,0.136035 1.349774,0.3023 0.704474,0.166265 1.331951,0.31429 1.394394,0.328943 l 0.113532,0.02664 v 1.538033 1.538034 l -0.113532,-0.0046 c -0.06244,-0.0025 -0.658488,-0.134747 -1.324545,-0.293801 z m 6.483961,-1.239621 v -1.538033 l 0.113532,-0.02664 c 0.06244,-0.01465 0.68992,-0.162678 1.394394,-0.328943 0.704474,-0.166265 1.289166,-0.3023 1.299315,-0.3023 0.01015,0 0.01845,-2.077643 0.01845,-4.616983 0,-2.539341 -0.01104,-4.616984 -0.02452,-4.616984 -0.01349,0 -0.604174,0.136239 -1.312635,0.302753 -0.708462,0.166515 -1.333208,0.302753 -1.388324,0.302753 -0.09779,0 -0.100212,-0.03725 -0.100212,-1.538994 0,-0.846447 0.01703,-1.539402 0.03784,-1.5399 0.02081,-5.05e-4 0.650919,-0.144951 1.400233,-0.321007 l 1.362388,-0.3201 0.01288,-4.623959 c 0.0071,-2.543178 0.0017,-4.62396 -0.01191,-4.62396 -0.01363,0 -0.604438,0.136239 -1.312899,0.302753 -0.708462,0.166514 -1.333208,0.302753 -1.388324,0.302753 -0.09778,0 -0.100212,-0.03724 -0.100212,-1.534985 V 38.44712 l 0.163991,-0.03494 c 0.0902,-0.01921 0.720922,-0.166686 1.401614,-0.327715 1.053376,-0.249194 1.390287,-0.353782 2.263087,-0.702535 0.564005,-0.225365 1.403523,-0.581064 1.865596,-0.790443 2.172392,-0.984377 4.10641,-1.641541 5.835556,-1.982878 1.243259,-0.245423 1.556509,-0.267006 3.557349,-0.24511 1.7271,0.0189 1.88745,0.0285 2.57594,0.154247 2.435879,0.444894 4.420699,1.140709 8.070879,2.829406 l 1.0344,0.478551 0.0127,13.905352 c 0.008,8.768708 -0.005,13.905353 -0.0353,13.905353 -0.0264,0 -0.77007,-0.343342 -1.65261,-0.762982 -4.66097,-2.216236 -7.005669,-2.955535 -9.829419,-3.099274 -2.30218,-0.117188 -5.089048,0.577604 -8.401401,2.094552 -0.374657,0.171581 -1.417726,0.629763 -2.31793,1.018184 l -1.636736,0.706219 -1.378191,0.324403 c -0.758005,0.178422 -1.412245,0.324404 -1.453868,0.324404 -0.06561,0 -0.07568,-0.204631 -0.07568,-1.538034 z m 6.247131,-3.614484 c 2.54746,-1.113945 4.903216,-1.802328 6.809088,-1.989709 l 0.36583,-0.03597 v -4.766575 -4.766575 l -0.26491,0.03353 c -2.008466,0.254242 -4.46318,1.035042 -6.862399,2.182805 l -0.693809,0.331912 v 4.634293 c 0,2.548862 0.01263,4.634294 0.02808,4.634294 0.01544,0 0.293598,-0.116106 0.618121,-0.258011 z m 17.821737,-4.408406 v -4.615957 l -0.18922,-0.09634 c -0.40132,-0.204324 -2.0986,-0.918177 -2.86625,-1.205498 -1.60739,-0.601627 -2.912649,-0.941817 -4.601659,-1.199329 l -0.21445,-0.0327 v 4.766275 4.766276 l 0.36582,0.03531 c 0.61,0.05888 1.78191,0.270438 2.558379,0.461842 1.2732,0.313851 3.3668,1.044735 4.59416,1.603838 0.15264,0.06953 0.29456,0.127729 0.31537,0.129328 0.0208,0.0016 0.0378,-2.074274 0.0378,-4.613051 z M 88.026227,48.614906 c 2.236728,-0.961017 4.409617,-1.573502 6.393774,-1.802249 l 0.54243,-0.06253 V 41.93865 37.127173 h -0.12113 c -0.23352,0 -1.32341,0.205044 -1.99814,0.375918 -1.28867,0.326352 -2.705499,0.842181 -4.33946,1.579878 -0.457914,0.206738 -0.951735,0.424597 -1.097379,0.484131 l -0.264809,0.108244 -1.01e-4,4.660226 c -1.01e-4,3.709205 0.01277,4.654626 0.06297,4.632787 0.03469,-0.01509 0.404519,-0.174142 0.821841,-0.353446 z m 17.570663,-4.303362 -0.0129,-4.67345 -0.81276,-0.368143 c -1.7881,-0.809936 -3.49279,-1.426143 -4.889089,-1.767295 -0.71085,-0.173678 -1.79833,-0.375488 -2.02337,-0.375488 h -0.12113 v 4.818818 c 0,3.00549 0.018,4.818819 0.0479,4.818819 0.14245,0 1.31486,0.168398 1.79387,0.257661 1.398779,0.260657 3.116859,0.786607 4.848049,1.48411 0.51828,0.208821 0.97918,0.401201 1.02422,0.427512 0.045,0.02631 0.099,0.04853 0.11998,0.04937 0.021,8.43e-4 0.0323,-2.101518 0.0252,-4.671915 z M 71.423385,64.722325 C 70.923843,64.528601 70.305091,64.28937 70.048382,64.190699 l -0.466744,-0.1794 v -1.58971 -1.58971 l 0.113532,0.02918 c 0.06244,0.01605 0.715254,0.277835 1.450692,0.581751 l 1.337159,0.552575 0.01334,1.542991 c 0.01251,1.446817 0.0078,1.542778 -0.07569,1.539584 -0.04897,-0.0019 -0.497748,-0.161907 -0.997291,-0.35563 z m -3.721339,-1.187454 -0.693809,-0.224433 v -1.738397 c 0,-0.956119 0.0088,-1.738398 0.01962,-1.738398 0.01723,0 0.875925,0.294437 1.330153,0.456096 l 0.163991,0.05836 v 1.710665 c 0,1.337592 -0.01375,1.709559 -0.06307,1.7056 -0.03469,-0.0028 -0.375288,-0.106059 -0.756883,-0.229497 z m 9.852088,-10.99253 v -1.538994 h 1.463306 1.463306 v 1.538994 1.538995 H 79.01744 77.554134 Z m -2.649089,1.01553 -1.31193,-0.31234 -0.01334,-1.549992 c -0.0073,-0.852496 -0.0011,-1.549992 0.01389,-1.549992 0.01498,0 0.565937,0.125749 1.224356,0.279443 0.658418,0.153694 1.30498,0.303168 1.436804,0.332164 l 0.239679,0.05272 v 1.534813 1.534813 l -0.138762,-0.0046 c -0.07632,-0.0026 -0.72913,-0.145197 -1.450691,-0.316985 z m -3.935789,-1.364307 -1.362389,-0.521726 -0.01332,-1.595717 c -0.0073,-0.877644 0.0023,-1.595716 0.0214,-1.595716 0.0191,0 0.677903,0.26453 1.464015,0.587845 l 1.429295,0.587845 v 1.531426 c 0,1.425559 -0.0061,1.5313 -0.0883,1.529598 -0.04857,-10e-4 -0.701378,-0.236605 -1.450691,-0.523555 z m -3.292439,-1.0218 -0.66858,-0.227286 v -1.711395 c 0,-1.335 0.01387,-1.711592 0.06307,-1.712291 0.03469,-5.04e-4 0.375287,0.106924 0.756882,0.238702 l 0.693809,0.239597 v 1.703963 c 0,1.590701 -0.0059,1.703699 -0.0883,1.69998 -0.04857,-0.0022 -0.389164,-0.106262 -0.756882,-0.23127 z m 9.877317,-10.991837 v -1.538994 h 1.463306 1.463306 v 1.538994 1.538995 H 79.01744 77.554134 Z m -2.649089,1.01553 -1.31193,-0.31234 -0.01334,-1.549992 c -0.0075,-0.869116 0.0062,-1.549992 0.03107,-1.549992 0.02443,0 0.609446,0.133675 1.300044,0.297056 0.690597,0.163382 1.329428,0.312778 1.419623,0.331992 l 0.163991,0.03494 v 1.534985 1.534985 l -0.138762,-0.0046 c -0.07632,-0.0026 -0.72913,-0.145197 -1.450691,-0.316985 z m -3.935789,-1.364307 -1.362389,-0.521727 -0.01332,-1.595716 c -0.0073,-0.877644 0.0062,-1.595716 0.03004,-1.595716 0.02385,0 0.654273,0.2523 1.400941,0.560666 0.746669,0.308366 1.385962,0.57192 1.420653,0.585675 0.04853,0.01924 0.06307,0.378706 0.06307,1.558605 0,1.427625 -0.0061,1.53347 -0.0883,1.531768 -0.04857,-0.001 -0.701378,-0.236605 -1.450691,-0.523555 z m -3.292439,-1.0218 -0.66858,-0.227286 v -1.711395 c 0,-1.334612 0.01387,-1.711396 0.06301,-1.711396 0.03466,0 0.375255,0.104062 0.756882,0.231249 l 0.693869,0.231249 v 1.711416 c 0,1.597799 -0.0059,1.711152 -0.0883,1.707433 -0.04857,-0.0022 -0.389164,-0.106262 -0.756881,-0.23127 z"
       id="path1053" />
  </g>
</svg>
